<svg width="220" height="220" viewBox="0 0 220 220" xmlns="http://www.w3.org/2000/svg" role="img" aria-labelledby="logoTitle logoDesc">
  <title id="logoTitle">Physical AI Logo</title>
  <desc id="logoDesc">Circular glyph with stylized humanoid nodes and gradients representing robotics intelligence</desc>
  <defs>
    <linearGradient id="orbGradient" x1="0%" y1="0%" x2="100%" y2="100%">
      <stop offset="0%" stop-color="#6EE7FF" />
      <stop offset="55%" stop-color="#7C7CFF" />
      <stop offset="100%" stop-color="#B86BFF" />
    </linearGradient>
    <linearGradient id="ringGradient" x1="0%" y1="0%" x2="100%" y2="0%">
      <stop offset="0%" stop-color="#FFFFFF" stop-opacity="0.85" />
      <stop offset="100%" stop-color="#9C9CFF" stop-opacity="0.7" />
    </linearGradient>
  </defs>
  <rect width="220" height="220" rx="32" fill="#050513" />
  <g transform="translate(110 110)">
    <circle r="78" fill="url(#orbGradient)" opacity="0.15" />
    <circle r="56" fill="url(#orbGradient)" opacity="0.35" />
    <circle r="36" fill="url(#orbGradient)" />
    <circle r="90" stroke="url(#ringGradient)" stroke-width="6" fill="none" opacity="0.5" />
    <g stroke="#ffffff" stroke-width="4" stroke-linecap="round" stroke-linejoin="round">
      <path d="M0 -52 L0 -20 M0 20 L0 52" opacity="0.85" />
      <path d="M-35 -35 L-14 -14 M14 14 L35 35" opacity="0.65" />
      <path d="M35 -35 L14 -14 M-14 14 L-35 35" opacity="0.65" />
    </g>
    <g fill="#0B0B1F" stroke="#7C8CFF" stroke-width="2">
      <circle cx="0" cy="-58" r="6" />
      <circle cx="0" cy="58" r="6" />
      <circle cx="58" cy="0" r="6" />
      <circle cx="-58" cy="0" r="6" />
      <circle cx="40" cy="-40" r="5" />
      <circle cx="-40" cy="40" r="5" />
    </g>
    <circle r="18" fill="#050513" stroke="#A7B5FF" stroke-width="3" />
    <circle r="6" fill="#7CF4FF" />
  </g>
  <text x="110" y="190" text-anchor="middle" font-family="Space Grotesk, 'DM Sans', sans-serif" font-size="24" letter-spacing="0.25em" fill="#ffffff">
    PAI
  </text>
</svg>